# Rhino

o object_1
v -1 0 -0.2479248344898224
v -1 0 1.7520751953125
v -0.5 -0.8660253882408142 -0.2479248344898224
v -0.5 -0.8660253882408142 1.7520751953125
v -0.5 -0.8660253882408142 -0.2479248344898224
v -0.5 -0.8660253882408142 1.7520751953125
v 0.5 -0.8660253882408142 -0.2479248344898224
v 0.5 -0.8660253882408142 1.7520751953125
v 0.5 -0.8660253882408142 -0.2479248344898224
v 0.5 -0.8660253882408142 1.7520751953125
v 1 -1.224646852585168e-16 -0.2479248344898224
v 1 -1.224646852585168e-16 1.7520751953125
v 1 -1.224646852585168e-16 -0.2479248344898224
v 1 -1.224646852585168e-16 1.7520751953125
v 0.5 0.8660253882408142 -0.2479248344898224
v 0.5 0.8660253882408142 1.7520751953125
v 0.5 0.8660253882408142 -0.2479248344898224
v 0.5 0.8660253882408142 1.7520751953125
v -0.5 0.8660253882408142 -0.2479248344898224
v -0.5 0.8660253882408142 1.7520751953125
v -0.5 0.8660253882408142 -0.2479248344898224
v -0.5 0.8660253882408142 1.7520751953125
v -1 0 -0.2479248344898224
v -1 0 1.7520751953125
v -1 0 -0.2479248344898224
v -0.5 -0.8660253882408142 -0.2479248344898224
v 0.5 -0.8660253882408142 -0.2479248344898224
v 1 -1.224646852585168e-16 -0.2479248344898224
v 0.5 0.8660253882408142 -0.2479248344898224
v -0.5 0.8660253882408142 -0.2479248344898224
v -1 0 1.7520751953125
v -0.5 -0.8660253882408142 1.7520751953125
v 0.5 -0.8660253882408142 1.7520751953125
v 1 -1.224646852585168e-16 1.7520751953125
v 0.5 0.8660253882408142 1.7520751953125
v -0.5 0.8660253882408142 1.7520751953125
vt 0 0
vt 0 0.6830122470855713
vt 0.1666666716337204 0
vt 0.1666666716337204 0.6830122470855713
vt 0.1666666716337204 0
vt 0.1666666716337204 0.6830122470855713
vt 0.3333333432674408 0
vt 0.3333333432674408 0.6830122470855713
vt 0.3333333432674408 0
vt 0.3333333432674408 0.6830122470855713
vt 0.5 0
vt 0.5 0.6830122470855713
vt 0.5 0
vt 0.5 0.6830122470855713
vt 0.6666666865348816 0
vt 0.6666666865348816 0.6830122470855713
vt 0.6666666865348816 0
vt 0.6666666865348816 0.6830122470855713
vt 0.8333333134651184 0
vt 0.8333333134651184 0.6830122470855713
vt 0.8333333134651184 0
vt 0.8333333134651184 0.6830122470855713
vt 1 0
vt 1 0.6830122470855713
vt 0 0.8415064811706543
vt 0.0833333358168602 1
vt 0.25 1
vt 0.3333333432674408 0.8415064811706543
vt 0.25 0.6830129027366638
vt 0.0833333358168602 0.6830129027366638
vt 0 0.8415064811706543
vt 0.0833333358168602 0.6830129027366638
vt 0.25 0.6830129027366638
vt 0.3333333432674408 0.8415064811706543
vt 0.25 1
vt 0.0833333358168602 1
vn -0.8660253882408142 -0.5 0
vn -0.8660253882408142 -0.5 0
vn -0.8660253882408142 -0.5 0
vn -0.8660253882408142 -0.5 0
vn -2.220446049250313e-16 -1 0
vn -2.220446049250313e-16 -1 0
vn -2.220446049250313e-16 -1 0
vn -2.220446049250313e-16 -1 0
vn 0.8660253882408142 -0.5 0
vn 0.8660253882408142 -0.5 0
vn 0.8660253882408142 -0.5 0
vn 0.8660253882408142 -0.5 0
vn 0.8660253882408142 0.5 0
vn 0.8660253882408142 0.5 0
vn 0.8660253882408142 0.5 0
vn 0.8660253882408142 0.5 0
vn 6.661338147750939e-16 1 0
vn 6.661338147750939e-16 1 0
vn 6.661338147750939e-16 1 0
vn 6.661338147750939e-16 1 0
vn -0.8660253882408142 0.5 0
vn -0.8660253882408142 0.5 0
vn -0.8660253882408142 0.5 0
vn -0.8660253882408142 0.5 0
vn 0 0 -1
vn 0 0 -1
vn 0 0 -1
vn 0 0 -1
vn 0 0 -1
vn 0 0 -1
vn 0 0 1
vn 0 0 1
vn 0 0 1
vn 0 0 1
vn 0 0 1
vn 0 0 1
f 1/1/1 3/3/3 4/4/4 2/2/2
f 5/5/5 7/7/7 8/8/8 6/6/6
f 9/9/9 11/11/11 12/12/12 10/10/10
f 13/13/13 15/15/15 16/16/16 14/14/14
f 17/17/17 19/19/19 20/20/20 18/18/18
f 21/21/21 23/23/23 24/24/24 22/22/22
f 29/29/29 25/25/25 30/30/30
f 26/26/26 25/25/25 29/29/29
f 26/26/26 29/29/29 28/28/28
f 27/27/27 26/26/26 28/28/28
f 35/35/35 36/36/36 31/31/31
f 32/32/32 35/35/35 31/31/31
f 32/32/32 34/34/34 35/35/35
f 33/33/33 34/34/34 32/32/32
